<?xml version="1.0" encoding="UTF-8" standalone="no"?>
<!DOCTYPE svg PUBLIC "-//W3C//DTD SVG 1.1//EN"
 "http://www.w3.org/Graphics/SVG/1.1/DTD/svg11.dtd">
<!-- Generated by graphviz version 2.26.3 (20100126.1600)
 -->
<!-- Title: G Pages: 1 -->
<svg width="110pt" height="484pt"
 viewBox="0.00 0.00 110.00 484.00" xmlns="http://www.w3.org/2000/svg" xmlns:xlink="http://www.w3.org/1999/xlink">
<g id="graph1" class="graph" transform="scale(1 1) rotate(0) translate(4 480)">
<title>G</title>
<polygon fill="white" stroke="white" points="-4,5 -4,-480 107,-480 107,5 -4,5"/>
<!-- cache1 -->
<g id="node1" class="node"><title>cache1</title>
<polygon fill="none" stroke="black" points="83,-402 19,-402 19,-366 83,-366 83,-402"/>
<text text-anchor="middle" x="51" y="-380.4" font-family="Times Roman,serif" font-size="14.00">cache1</text>
</g>
<!-- web -->
<g id="node7" class="node"><title>web</title>
<ellipse fill="none" stroke="black" cx="51" cy="-311" rx="32.0265" ry="18.3848"/>
<text text-anchor="middle" x="51" y="-307.4" font-family="Times Roman,serif" font-size="14.00">web</text>
</g>
<!-- cache1&#45;&gt;web -->
<g id="edge4" class="edge"><title>cache1&#45;&gt;web</title>
<path fill="none" stroke="black" d="M51,-365.955C51,-358.091 51,-348.675 51,-339.878"/>
<polygon fill="black" stroke="black" points="54.5001,-339.599 51,-329.6 47.5001,-339.6 54.5001,-339.599"/>
</g>
<!-- cache2 -->
<g id="node2" class="node"><title>cache2</title>
<polygon fill="green" stroke="green" points="83,-256 19,-256 19,-220 83,-220 83,-256"/>
<text text-anchor="middle" x="51" y="-234.4" font-family="Times Roman,serif" font-size="14.00">cache2</text>
</g>
<!-- app -->
<g id="node10" class="node"><title>app</title>
<ellipse fill="none" stroke="black" cx="51" cy="-165" rx="28.9914" ry="18.3848"/>
<text text-anchor="middle" x="51" y="-161.4" font-family="Times Roman,serif" font-size="14.00">app</text>
</g>
<!-- cache2&#45;&gt;app -->
<g id="edge8" class="edge"><title>cache2&#45;&gt;app</title>
<path fill="none" stroke="black" d="M51,-219.955C51,-212.091 51,-202.675 51,-193.878"/>
<polygon fill="black" stroke="black" points="54.5001,-193.599 51,-183.6 47.5001,-193.6 54.5001,-193.599"/>
</g>
<!-- cache3 -->
<g id="node3" class="node"><title>cache3</title>
<polygon fill="none" stroke="black" points="83,-110 19,-110 19,-74 83,-74 83,-110"/>
<text text-anchor="middle" x="51" y="-88.4" font-family="Times Roman,serif" font-size="14.00">cache3</text>
</g>
<!-- db -->
<g id="node13" class="node"><title>db</title>
<ellipse fill="none" stroke="black" cx="51" cy="-19" rx="27" ry="18.3848"/>
<text text-anchor="middle" x="51" y="-15.4" font-family="Times Roman,serif" font-size="14.00">db</text>
</g>
<!-- cache3&#45;&gt;db -->
<g id="edge12" class="edge"><title>cache3&#45;&gt;db</title>
<path fill="none" stroke="black" d="M51,-73.9551C51,-66.0906 51,-56.6751 51,-47.8778"/>
<polygon fill="black" stroke="black" points="54.5001,-47.5995 51,-37.5995 47.5001,-47.5996 54.5001,-47.5995"/>
</g>
<!-- browser -->
<g id="node4" class="node"><title>browser</title>
<ellipse fill="none" stroke="black" cx="51" cy="-457" rx="51.1176" ry="18.3848"/>
<text text-anchor="middle" x="51" y="-453.4" font-family="Times Roman,serif" font-size="14.00">browser</text>
</g>
<!-- browser&#45;&gt;cache1 -->
<g id="edge2" class="edge"><title>browser&#45;&gt;cache1</title>
<path fill="none" stroke="black" d="M51,-438.201C51,-430.332 51,-421.015 51,-412.345"/>
<polygon fill="black" stroke="black" points="54.5001,-412.231 51,-402.231 47.5001,-412.231 54.5001,-412.231"/>
</g>
<!-- web&#45;&gt;cache2 -->
<g id="edge6" class="edge"><title>web&#45;&gt;cache2</title>
<path fill="none" stroke="black" d="M51,-292.201C51,-284.332 51,-275.015 51,-266.345"/>
<polygon fill="black" stroke="black" points="54.5001,-266.231 51,-256.231 47.5001,-266.231 54.5001,-266.231"/>
</g>
<!-- app&#45;&gt;cache3 -->
<g id="edge10" class="edge"><title>app&#45;&gt;cache3</title>
<path fill="none" stroke="black" d="M51,-146.201C51,-138.332 51,-129.015 51,-120.345"/>
<polygon fill="black" stroke="black" points="54.5001,-120.231 51,-110.231 47.5001,-120.231 54.5001,-120.231"/>
</g>
</g>
</svg>
