<?xml version="1.0" encoding="UTF-8" standalone="no"?>
<!DOCTYPE svg PUBLIC "-//W3C//DTD SVG 1.1//EN"
 "http://www.w3.org/Graphics/SVG/1.1/DTD/svg11.dtd">
<!-- Generated by graphviz version 2.26.3 (20100126.1600)
 -->
<!-- Title: G Pages: 1 -->
<svg width="110pt" height="268pt"
 viewBox="0.00 0.00 110.00 268.00" xmlns="http://www.w3.org/2000/svg" xmlns:xlink="http://www.w3.org/1999/xlink">
<g id="graph1" class="graph" transform="scale(1 1) rotate(0) translate(4 264)">
<title>G</title>
<polygon fill="white" stroke="white" points="-4,5 -4,-264 107,-264 107,5 -4,5"/>
<!-- browser -->
<g id="node1" class="node"><title>browser</title>
<ellipse fill="none" stroke="black" cx="51" cy="-241" rx="51.1176" ry="18.3848"/>
<text text-anchor="middle" x="51" y="-237.4" font-family="Times Roman,serif" font-size="14.00">browser</text>
</g>
<!-- web -->
<g id="node3" class="node"><title>web</title>
<ellipse fill="none" stroke="black" cx="51" cy="-167" rx="32.0265" ry="18.3848"/>
<text text-anchor="middle" x="51" y="-163.4" font-family="Times Roman,serif" font-size="14.00">web</text>
</g>
<!-- browser&#45;&gt;web -->
<g id="edge2" class="edge"><title>browser&#45;&gt;web</title>
<path fill="none" stroke="black" d="M51,-222.327C51,-214.264 51,-204.648 51,-195.711"/>
<polygon fill="black" stroke="black" points="54.5001,-195.667 51,-185.667 47.5001,-195.667 54.5001,-195.667"/>
</g>
<!-- app -->
<g id="node4" class="node"><title>app</title>
<ellipse fill="none" stroke="black" cx="51" cy="-93" rx="28.9914" ry="18.3848"/>
<text text-anchor="middle" x="51" y="-89.4" font-family="Times Roman,serif" font-size="14.00">app</text>
</g>
<!-- web&#45;&gt;app -->
<g id="edge3" class="edge"><title>web&#45;&gt;app</title>
<path fill="none" stroke="black" d="M51,-148.327C51,-140.264 51,-130.648 51,-121.711"/>
<polygon fill="black" stroke="black" points="54.5001,-121.667 51,-111.667 47.5001,-121.667 54.5001,-121.667"/>
</g>
<!-- db -->
<g id="node5" class="node"><title>db</title>
<ellipse fill="none" stroke="black" cx="51" cy="-19" rx="27" ry="18.3848"/>
<text text-anchor="middle" x="51" y="-15.4" font-family="Times Roman,serif" font-size="14.00">db</text>
</g>
<!-- app&#45;&gt;db -->
<g id="edge4" class="edge"><title>app&#45;&gt;db</title>
<path fill="none" stroke="black" d="M51,-74.3267C51,-66.2639 51,-56.6477 51,-47.7115"/>
<polygon fill="black" stroke="black" points="54.5001,-47.6673 51,-37.6674 47.5001,-47.6674 54.5001,-47.6673"/>
</g>
</g>
</svg>
