<?xml version="1.0" encoding="UTF-8" standalone="no"?>
<!DOCTYPE svg PUBLIC "-//W3C//DTD SVG 1.1//EN"
 "http://www.w3.org/Graphics/SVG/1.1/DTD/svg11.dtd">
<!-- Generated by graphviz version 2.26.3 (20100126.1600)
 -->
<!-- Title: G Pages: 1 -->
<svg width="357pt" height="138pt"
 viewBox="0.00 0.00 357.00 138.00" xmlns="http://www.w3.org/2000/svg" xmlns:xlink="http://www.w3.org/1999/xlink">
<g id="graph1" class="graph" transform="scale(1 1) rotate(0) translate(4 134)">
<title>G</title>
<polygon fill="white" stroke="white" points="-4,5 -4,-134 354,-134 354,5 -4,5"/>
<!-- app -->
<g id="node1" class="node"><title>app</title>
<ellipse fill="none" stroke="black" cx="156" cy="-111" rx="28.9914" ry="18.3848"/>
<text text-anchor="middle" x="156" y="-107.4" font-family="Times Roman,serif" font-size="14.00">app</text>
</g>
<!-- cache1 -->
<g id="node3" class="node"><title>cache1</title>
<ellipse fill="none" stroke="black" cx="46" cy="-19" rx="45.9619" ry="18.3848"/>
<text text-anchor="middle" x="46" y="-15.4" font-family="Times Roman,serif" font-size="14.00">cache1</text>
</g>
<!-- app&#45;&gt;cache1 -->
<g id="edge2" class="edge"><title>app&#45;&gt;cache1</title>
<path fill="none" stroke="black" d="M138.327,-96.2186C120.956,-81.6901 94.1786,-59.2949 73.9266,-42.3568"/>
<polygon fill="black" stroke="black" points="76.16,-39.662 66.2438,-35.9311 71.6691,-45.0315 76.16,-39.662"/>
</g>
<!-- cache2 -->
<g id="node5" class="node"><title>cache2</title>
<ellipse fill="none" stroke="black" cx="156" cy="-19" rx="45.9619" ry="18.3848"/>
<text text-anchor="middle" x="156" y="-15.4" font-family="Times Roman,serif" font-size="14.00">cache2</text>
</g>
<!-- app&#45;&gt;cache2 -->
<g id="edge4" class="edge"><title>app&#45;&gt;cache2</title>
<path fill="none" stroke="black" d="M156,-92.3824C156,-79.5383 156,-62.2161 156,-47.6269"/>
<polygon fill="black" stroke="black" points="159.5,-47.5898 156,-37.5899 152.5,-47.5899 159.5,-47.5898"/>
</g>
<!-- cache3 -->
<g id="node7" class="node"><title>cache3</title>
<ellipse fill="none" stroke="black" cx="266" cy="-19" rx="45.9619" ry="18.3848"/>
<text text-anchor="middle" x="266" y="-15.4" font-family="Times Roman,serif" font-size="14.00">cache3</text>
</g>
<!-- app&#45;&gt;cache3 -->
<g id="edge6" class="edge"><title>app&#45;&gt;cache3</title>
<path fill="none" stroke="black" stroke-dasharray="1,5" d="M173.673,-96.2186C191.044,-81.6901 217.821,-59.2949 238.073,-42.3568"/>
<polygon fill="black" stroke="black" points="240.331,-45.0315 245.756,-35.9311 235.84,-39.662 240.331,-45.0315"/>
<text text-anchor="middle" x="284.5" y="-61.4" font-family="Times Roman,serif" font-size="14.00">New Cache Server</text>
</g>
</g>
</svg>
